<svg xmlns="http://www.w3.org/2000/svg" width="50" height="44" viewBox="0 0 50 44" fill="none">
  <defs>
    <linearGradient id="shieldGrad" x1="6" y1="4" x2="38" y2="40" gradientUnits="userSpaceOnUse">
      <stop stop-color="#3B82F6"/>
      <stop offset="1" stop-color="#2563EB"/>
    </linearGradient>
  </defs>

  <!-- Shield mark -->
  <path d="M22 4L38 10V21C38 29.2 31.7 36.6 22 40C12.3 36.6 6 29.2 6 21V10L22 4Z" fill="url(#shieldGrad)"/>
  <path d="M22 11L31 14.4V21C31 26.1 27.3 30.7 22 33C16.7 30.7 13 26.1 13 21V14.4L22 11Z" fill="#EFF6FF" opacity="0.95"/>


  <!-- Emby 图标 + 白色外轮廓 -->
  <!-- 白色轮廓层 -->
  <path transform="scale(0.7) translate(40, 34)" fill="none" stroke="white" stroke-width="2.2" d="M11.041 0c-.007 0-1.456 1.43-3.219 3.176L4.615 6.352l.512.513.512.512-2.819 2.791L0 12.961l1.83 1.848c1.006 1.016 2.438 2.46 3.182 3.209l1.351 1.359.508-.496c.28-.273.515-.498.524-.498.008 0 1.266 1.264 2.794 2.808L12.97 24l.187-.182c.23-.225 5.007-4.95 5.717-5.656l.52-.516-.502-.513c-.276-.282-.5-.52-.496-.53.003-.009 1.264-1.26 2.802-2.783 1.538-1.522 2.8-2.776 2.803-2.785.005-.012-3.617-3.684-6.107-6.193L17.65 4.6l-.505.505c-.279.278-.517.501-.53.497-.013-.005-1.27-1.267-2.793-2.805A449.655 449.655 0 0011.041 0zM9.223 7.367c.091.038 7.951 4.608 7.957 4.627.003.013-1.781 1.056-3.965 2.32a999.898 999.898 0 01-3.996 2.307c-.019.006-.026-1.266-.026-4.629 0-3.7.007-4.634.03-4.625Z"/>
  <!-- 蓝色填充层 -->
  <path transform="scale(0.7) translate(40, 34)" fill="#0066cc" d="M11.041 0c-.007 0-1.456 1.43-3.219 3.176L4.615 6.352l.512.513.512.512-2.819 2.791L0 12.961l1.83 1.848c1.006 1.016 2.438 2.46 3.182 3.209l1.351 1.359.508-.496c.28-.273.515-.498.524-.498.008 0 1.266 1.264 2.794 2.808L12.97 24l.187-.182c.23-.225 5.007-4.95 5.717-5.656l.52-.516-.502-.513c-.276-.282-.5-.52-.496-.53.003-.009 1.264-1.26 2.802-2.783 1.538-1.522 2.8-2.776 2.803-2.785.005-.012-3.617-3.684-6.107-6.193L17.65 4.6l-.505.505c-.279.278-.517.501-.53.497-.013-.005-1.27-1.267-2.793-2.805A449.655 449.655 0 0011.041 0zM9.223 7.367c.091.038 7.951 4.608 7.957 4.627.003.013-1.781 1.056-3.965 2.32a999.898 999.898 0 01-3.996 2.307c-.019.006-.026-1.266-.026-4.629 0-3.7.007-4.634.03-4.625Z"/>
</svg>