<svg xmlns="http://www.w3.org/2000/svg" width="160" height="40" viewBox="0 0 160 40" fill="none">
  <rect width="40" height="40" rx="12" fill="#111827"/>
  <rect x="5" y="6" width="30" height="28" rx="7" fill="#2563EB"/>
  <path d="M13 16h14M13 21h14M13 26h10" stroke="white" stroke-width="2.6" stroke-linecap="round"/>
  <circle cx="30" cy="30" r="6" fill="#22C55E"/>
  <path d="M27.5 30l1.6 1.6L32.8 28" stroke="white" stroke-width="2" stroke-linecap="round" stroke-linejoin="round"/>
  <path d="M50 15.2h8.2c4.4 0 7 2.3 7 6s-2.6 6-7 6H54v7.3h-4V15.2Zm7.7 8.7c2.4 0 3.7-.9 3.7-2.7s-1.3-2.7-3.7-2.7H54v5.4h3.7Zm13.1-8.7h12.8v3.3h-8.8v4.4h7.8v3.2h-7.8v4.9h9v3.4H70.8V15.2Zm18.6 0h7.8c4.6 0 7.2 2.1 7.2 5.7 0 2.5-1.3 4.3-3.7 5.2l4.9 8.3h-4.5l-4.2-7.4h-3.5v7.4h-4V15.2Zm7.4 8.5c2.4 0 3.6-.9 3.6-2.6s-1.2-2.5-3.6-2.5h-3.4v5.1h3.4Zm12.4-8.5h4v15.8h8.7v3.4h-12.7V15.2Zm15.8 0H128l4.7 7.8 4.7-7.8h4.1l-6.8 11.1v8.1h-4v-8.1l-6.7-11.1Z" fill="#111827"/>
</svg>
